<svg width="25" height="25" viewBox="0 0 25 25" fill="none" xmlns="http://www.w3.org/2000/svg">
<path d="M4.6875 22.8906C4.27083 22.8906 3.90625 22.7344 3.59375 22.4219C3.28125 22.1094 3.125 21.7448 3.125 21.3281V5.62499H4.6875V21.3281H17.0313V22.8906H4.6875ZM7.8125 19.7656C7.39583 19.7656 7.03125 19.6094 6.71875 19.2969C6.40625 18.9844 6.25 18.6198 6.25 18.2031V3.61978C6.25 3.20311 6.40625 2.83853 6.71875 2.52603C7.03125 2.21353 7.39583 2.05728 7.8125 2.05728H19.2708C19.6875 2.05728 20.0521 2.21353 20.3646 2.52603C20.6771 2.83853 20.8333 3.20311 20.8333 3.61978V18.2031C20.8333 18.6198 20.6771 18.9844 20.3646 19.2969C20.0521 19.6094 19.6875 19.7656 19.2708 19.7656H7.8125ZM7.8125 18.2031H19.2708V3.61978H7.8125V18.2031Z" fill="white"/>
</svg>
