<svg width="22" height="22" viewBox="0 0 22 22" fill="none" xmlns="http://www.w3.org/2000/svg">
<g id="error_FILL0_wght400_GRAD0_opsz48 1">
<path id="Vector" d="M10.9852 15C11.1719 15 11.3284 14.9368 11.4549 14.8104C11.5814 14.6839 11.6447 14.5273 11.6447 14.3404C11.6447 14.1535 11.5816 13.9967 11.4553 13.87C11.329 13.7433 11.1726 13.68 10.9859 13.68C10.7993 13.68 10.6427 13.7432 10.5162 13.8696C10.3897 13.9961 10.3264 14.1527 10.3264 14.3396C10.3264 14.5265 10.3896 14.6833 10.5158 14.81C10.6421 14.9367 10.7986 15 10.9852 15ZM10.4463 11.94H11.6447V6.88H10.4463V11.94ZM10.9909 19C9.88921 19 8.85391 18.79 7.88497 18.37C6.91604 17.95 6.06871 17.3767 5.343 16.65C4.61729 15.9233 4.04471 15.0744 3.62526 14.1032C3.20582 13.132 2.99609 12.0943 2.99609 10.99C2.99609 9.88575 3.20582 8.84802 3.62526 7.87682C4.04471 6.90561 4.61729 6.06 5.343 5.34C6.06871 4.62 6.91654 4.05 7.88647 3.63C8.85639 3.21 9.89275 3 10.9956 3C12.0984 3 13.1347 3.21 14.1046 3.63C15.0746 4.05 15.9191 4.62 16.6381 5.34C17.3572 6.06 17.9264 6.90667 18.3459 7.88C18.7653 8.85333 18.975 9.89156 18.975 10.9947C18.975 12.0978 18.7653 13.1345 18.3459 14.1047C17.9264 15.0749 17.3572 15.9221 16.6381 16.6463C15.9191 17.3705 15.0735 17.9439 14.1015 18.3663C13.1294 18.7888 12.0925 19 10.9909 19ZM10.9956 17.8C12.8797 17.8 14.481 17.1367 15.7992 15.81C17.1175 14.4833 17.7766 12.8767 17.7766 10.99C17.7766 9.10333 17.1187 7.5 15.803 6.18C14.4872 4.86 12.8814 4.2 10.9856 4.2C9.10804 4.2 7.50682 4.85875 6.1819 6.17624C4.85698 7.49375 4.19451 9.10167 4.19451 11C4.19451 12.88 4.85698 14.4833 6.1819 15.81C7.50682 17.1367 9.11137 17.8 10.9956 17.8Z" fill="white"/>
</g>
</svg>
