<svg width="22" height="22" viewBox="0 0 22 22" fill="none" xmlns="http://www.w3.org/2000/svg">
<g id="error_FILL0_wght400_GRAD0_opsz48 1">
<path id="Vector" d="M10.9996 15C11.1865 15 11.3433 14.9368 11.47 14.8104C11.5967 14.6839 11.66 14.5273 11.66 14.3404C11.66 14.1535 11.5968 13.9967 11.4704 13.87C11.3439 13.7433 11.1873 13.68 11.0004 13.68C10.8135 13.68 10.6567 13.7432 10.53 13.8696C10.4033 13.9961 10.34 14.1527 10.34 14.3396C10.34 14.5265 10.4032 14.6833 10.5296 14.81C10.6561 14.9367 10.8127 15 10.9996 15ZM10.46 11.94H11.66V6.88H10.46V11.94ZM11.0053 19C9.9022 19 8.86553 18.79 7.89532 18.37C6.92511 17.95 6.07667 17.3767 5.35 16.65C4.62333 15.9233 4.05 15.0744 3.63 14.1032C3.21 13.132 3 12.0943 3 10.99C3 9.88575 3.21 8.84802 3.63 7.87682C4.05 6.90561 4.62333 6.06 5.35 5.34C6.07667 4.62 6.92561 4.05 7.89682 3.63C8.86802 3.21 9.90575 3 11.01 3C12.1143 3 13.152 3.21 14.1232 3.63C15.0944 4.05 15.94 4.62 16.66 5.34C17.38 6.06 17.95 6.90667 18.37 7.88C18.79 8.85333 19 9.89156 19 10.9947C19 12.0978 18.79 13.1345 18.37 14.1047C17.95 15.0749 17.38 15.9221 16.66 16.6463C15.94 17.3705 15.0933 17.9439 14.12 18.3663C13.1467 18.7888 12.1084 19 11.0053 19ZM11.01 17.8C12.8967 17.8 14.5 17.1367 15.82 15.81C17.14 14.4833 17.8 12.8767 17.8 10.99C17.8 9.10333 17.1413 7.5 15.8238 6.18C14.5063 4.86 12.8983 4.2 11 4.2C9.12 4.2 7.51667 4.85875 6.19 6.17624C4.86333 7.49375 4.2 9.10167 4.2 11C4.2 12.88 4.86333 14.4833 6.19 15.81C7.51667 17.1367 9.12333 17.8 11.01 17.8Z" fill="#EE5555"/>
</g>
</svg>
