<svg width="25" height="25" viewBox="0 0 25 25" fill="none" xmlns="http://www.w3.org/2000/svg">
<path d="M12.5 17.6823C12.7431 17.6823 12.9557 17.5911 13.138 17.4089C13.3203 17.2266 13.4115 17.0139 13.4115 16.7708C13.4115 16.5278 13.3203 16.3151 13.138 16.1328C12.9557 15.9505 12.7431 15.8594 12.5 15.8594C12.2569 15.8594 12.0443 15.9505 11.862 16.1328C11.6797 16.3151 11.5885 16.5278 11.5885 16.7708C11.5885 17.0139 11.6797 17.2266 11.862 17.4089C12.0443 17.5911 12.2569 17.6823 12.5 17.6823ZM11.7188 13.9323H13.2812V7.08333H11.7188V13.9323ZM8.59375 21.875L3.125 16.4062V8.59375L8.59375 3.125H16.4062L21.875 8.59375V16.4062L16.4062 21.875H8.59375ZM9.24479 20.3125H15.7552L20.3125 15.7552V9.24479L15.7552 4.6875H9.24479L4.6875 9.24479V15.7552L9.24479 20.3125Z" fill="#A861D3"/>
</svg>
