<svg width="25" height="25" viewBox="0 0 25 25" fill="none" xmlns="http://www.w3.org/2000/svg">
<path d="M16.3802 14.0886L15.2343 12.9427C15.6857 11.7101 15.4513 10.6858 14.5312 9.8698C13.6111 9.05383 12.6128 8.8455 11.5364 9.2448L10.3906 8.09897C10.6857 7.908 11.0156 7.76911 11.3802 7.6823C11.7448 7.5955 12.118 7.55209 12.5 7.55209C13.7326 7.55209 14.7786 7.98178 15.638 8.84116C16.4974 9.70053 16.927 10.7465 16.927 11.9792C16.927 12.3611 16.8793 12.7387 16.7838 13.112C16.6883 13.4853 16.5538 13.8108 16.3802 14.0886ZM19.7395 17.4479L18.6979 16.4063C19.5486 15.7813 20.2908 15.0825 20.9244 14.3099C21.5581 13.5373 22.0225 12.7604 22.3177 11.9792C21.4496 10.0521 20.1475 8.52866 18.4114 7.40886C16.6753 6.28907 14.7916 5.72918 12.7604 5.72918C12.0312 5.72918 11.2847 5.79862 10.5208 5.93751C9.7569 6.0764 9.15795 6.24133 8.72392 6.4323L7.526 5.20834C8.13364 4.93057 8.91055 4.68751 9.85673 4.47918C10.8029 4.27084 11.7274 4.16668 12.6302 4.16668C15.1128 4.16668 17.3828 4.87414 19.4401 6.28907C21.4974 7.704 23.0034 9.6007 23.9583 11.9792C23.5069 13.0903 22.9253 14.1059 22.2135 15.0261C21.5017 15.9462 20.677 16.7535 19.7395 17.4479ZM21.25 23.3333L16.875 19.0365C16.2673 19.2795 15.5816 19.4662 14.8177 19.5964C14.0538 19.7266 13.2812 19.7917 12.5 19.7917C9.96524 19.7917 7.66489 19.0842 5.59892 17.6693C3.53295 16.2543 2.01385 14.3576 1.04163 11.9792C1.38885 11.0764 1.87062 10.1953 2.48694 9.33595C3.10326 8.47657 3.85413 7.65626 4.73954 6.87501L1.45829 3.59376L2.55204 2.47397L22.2656 22.1875L21.25 23.3333ZM5.80725 7.96876C5.16489 8.43751 4.54423 9.05383 3.94527 9.81772C3.34631 10.5816 2.91663 11.3021 2.65621 11.9792C3.54163 13.9063 4.87409 15.4297 6.6536 16.5495C8.43312 17.6693 10.4513 18.2292 12.7083 18.2292C13.2812 18.2292 13.8454 18.1945 14.401 18.125C14.9566 18.0556 15.3732 17.9514 15.651 17.8125L13.9843 16.1458C13.7934 16.2326 13.559 16.2978 13.2812 16.3412C13.0034 16.3846 12.743 16.4063 12.5 16.4063C11.2847 16.4063 10.243 15.9809 9.37496 15.1302C8.5069 14.2795 8.07288 13.2292 8.07288 11.9792C8.07288 11.7188 8.09458 11.4583 8.13798 11.1979C8.18138 10.9375 8.24649 10.7031 8.33329 10.4948L5.80725 7.96876Z" fill="#4B4B4B"/>
</svg>
