<svg width="48" height="48" viewBox="0 0 48 48" fill="none" xmlns="http://www.w3.org/2000/svg">
<path d="M11.1479 35.1185C13.2399 33.6678 15.3152 32.5547 17.3739 31.7793C19.4326 31.004 21.643 30.6163 24.0052 30.6163C26.3674 30.6163 28.5881 31.007 30.6673 31.7885C32.7465 32.57 34.8248 33.68 36.9022 35.1185C38.3529 33.3105 39.3806 31.5079 39.9853 29.7108C40.59 27.9137 40.8924 26.0101 40.8924 24C40.8924 19.2046 39.2761 15.1903 36.0434 11.9572C32.8107 8.72412 28.797 7.10759 24.0021 7.10759C19.2072 7.10759 15.1928 8.72412 11.9587 11.9572C8.72464 15.1903 7.10761 19.2046 7.10761 24C7.10761 26.0094 7.41641 27.9117 8.03401 29.7069C8.65164 31.5021 9.68959 33.306 11.1479 35.1185ZM23.9907 25.5837C22.0384 25.5837 20.3983 24.9163 19.0703 23.5814C17.7423 22.2466 17.0783 20.6057 17.0783 18.6586C17.0783 16.7116 17.7454 15.0717 19.0796 13.7391C20.4138 12.4065 22.057 11.7402 24.0093 11.7402C25.9616 11.7402 27.6018 12.4096 28.9298 13.7484C30.2578 15.0872 30.9218 16.7302 30.9218 18.6772C30.9218 20.6243 30.2547 22.2621 28.9205 23.5907C27.5863 24.9194 25.943 25.5837 23.9907 25.5837ZM24.0164 44.2989C21.2323 44.2989 18.6061 43.7668 16.1378 42.7025C13.6695 41.6382 11.5118 40.1827 9.66476 38.3358C7.81776 36.489 6.36206 34.3351 5.29766 31.8741C4.23329 29.4132 3.70111 26.7837 3.70111 23.9857C3.70111 21.1967 4.23408 18.5739 5.30001 16.1174C6.36594 13.6609 7.82119 11.5103 9.66576 9.66574C11.5103 7.82117 13.6633 6.36392 16.1246 5.29399C18.5859 4.22405 21.2158 3.68909 24.0143 3.68909C26.8033 3.68909 29.4261 4.22405 31.8826 5.29399C34.3391 6.36392 36.4897 7.82117 38.3343 9.66574C40.1788 11.5103 41.6361 13.6617 42.706 16.12C43.7759 18.5782 44.3109 21.1994 44.3109 23.9836C44.3109 26.7677 43.7759 29.3944 42.706 31.8636C41.6361 34.3328 40.1788 36.4897 38.3343 38.3342C36.4897 40.1788 34.3383 41.6341 31.88 42.7C29.4218 43.7659 26.8006 44.2989 24.0164 44.2989ZM24 40.8924C25.8094 40.8924 27.5692 40.6337 29.2794 40.1163C30.9895 39.5989 32.6946 38.6855 34.3946 37.3761C32.6866 36.1841 30.9732 35.2813 29.2544 34.6679C27.5355 34.0545 25.7841 33.7478 24 33.7478C22.2159 33.7478 20.4665 34.0545 18.7517 34.6679C17.0368 35.2813 15.3254 36.1841 13.6174 37.3761C15.3174 38.6855 17.0205 39.5989 18.7267 40.1163C20.4328 40.6337 22.1906 40.8924 24 40.8924ZM24 22.4402C25.1084 22.4402 26.0152 22.0898 26.7204 21.3891C27.4256 20.6884 27.7783 19.7813 27.7783 18.6679C27.7783 17.5545 27.4256 16.6455 26.7204 15.9407C26.0152 15.236 25.1084 14.8837 24 14.8837C22.8916 14.8837 21.9848 15.236 21.2796 15.9407C20.5744 16.6455 20.2218 17.5545 20.2218 18.6679C20.2218 19.7813 20.5744 20.6884 21.2796 21.3891C21.9848 22.0898 22.8916 22.4402 24 22.4402Z" fill="#4B4B4B"/>
</svg>
