<svg width="281" height="33" viewBox="0 0 281 33" fill="none" xmlns="http://www.w3.org/2000/svg">
<path d="M72.1892 29.288C70.4372 29.288 68.8772 28.988 67.5092 28.388C66.1412 27.788 65.0612 26.972 64.2692 25.94C63.4772 24.884 63.0332 23.708 62.9372 22.412H69.0212C69.0932 23.108 69.4172 23.672 69.9932 24.104C70.5692 24.536 71.2772 24.752 72.1172 24.752C72.8852 24.752 73.4732 24.608 73.8812 24.32C74.3132 24.008 74.5292 23.612 74.5292 23.132C74.5292 22.556 74.2292 22.136 73.6292 21.872C73.0292 21.584 72.0572 21.272 70.7132 20.936C69.2732 20.6 68.0732 20.252 67.1132 19.892C66.1532 19.508 65.3252 18.92 64.6292 18.128C63.9332 17.312 63.5852 16.22 63.5852 14.852C63.5852 13.7 63.8972 12.656 64.5212 11.72C65.1692 10.76 66.1052 10.004 67.3292 9.452C68.5772 8.9 70.0532 8.624 71.7572 8.624C74.2772 8.624 76.2572 9.248 77.6972 10.496C79.1612 11.744 80.0012 13.4 80.2172 15.464H74.5292C74.4332 14.768 74.1212 14.216 73.5932 13.808C73.0892 13.4 72.4172 13.196 71.5772 13.196C70.8572 13.196 70.3052 13.34 69.9212 13.628C69.5372 13.892 69.3452 14.264 69.3452 14.744C69.3452 15.32 69.6452 15.752 70.2452 16.04C70.8692 16.328 71.8292 16.616 73.1252 16.904C74.6132 17.288 75.8252 17.672 76.7612 18.056C77.6972 18.416 78.5132 19.016 79.2092 19.856C79.9292 20.672 80.3012 21.776 80.3252 23.168C80.3252 24.344 79.9892 25.4 79.3172 26.336C78.6692 27.248 77.7212 27.968 76.4732 28.496C75.2492 29.024 73.8212 29.288 72.1892 29.288ZM93.2354 29.288C91.2674 29.288 89.4914 28.868 87.9074 28.028C86.3474 27.188 85.1114 25.988 84.1994 24.428C83.3114 22.868 82.8674 21.044 82.8674 18.956C82.8674 16.892 83.3234 15.08 84.2354 13.52C85.1474 11.936 86.3954 10.724 87.9794 9.884C89.5634 9.044 91.3394 8.624 93.3074 8.624C95.2754 8.624 97.0514 9.044 98.6354 9.884C100.219 10.724 101.467 11.936 102.379 13.52C103.291 15.08 103.747 16.892 103.747 18.956C103.747 21.02 103.279 22.844 102.343 24.428C101.431 25.988 100.171 27.188 98.5634 28.028C96.9794 28.868 95.2034 29.288 93.2354 29.288ZM93.2354 23.96C94.4114 23.96 95.4074 23.528 96.2234 22.664C97.0634 21.8 97.4834 20.564 97.4834 18.956C97.4834 17.348 97.0754 16.112 96.2594 15.248C95.4674 14.384 94.4834 13.952 93.3074 13.952C92.1074 13.952 91.1114 14.384 90.3194 15.248C89.5274 16.088 89.1314 17.324 89.1314 18.956C89.1314 20.564 89.5154 21.8 90.2834 22.664C91.0754 23.528 92.0594 23.96 93.2354 23.96ZM119.253 8.696C121.605 8.696 123.477 9.464 124.869 11C126.285 12.512 126.993 14.6 126.993 17.264V29H120.873V18.092C120.873 16.748 120.525 15.704 119.829 14.96C119.133 14.216 118.197 13.844 117.021 13.844C115.845 13.844 114.909 14.216 114.213 14.96C113.517 15.704 113.169 16.748 113.169 18.092V29H107.013V8.912H113.169V11.576C113.793 10.688 114.633 9.992 115.689 9.488C116.745 8.96 117.933 8.696 119.253 8.696ZM213.823 29.288C212.575 29.288 211.567 28.952 210.799 28.28C210.055 27.584 209.683 26.708 209.683 25.652C209.683 24.596 210.055 23.72 210.799 23.024C211.567 22.328 212.575 21.98 213.823 21.98C215.047 21.98 216.031 22.328 216.775 23.024C217.543 23.72 217.927 24.596 217.927 25.652C217.927 26.684 217.543 27.548 216.775 28.244C216.031 28.94 215.047 29.288 213.823 29.288Z" fill="#474747"/>
<path d="M150.063 18.596C150.063 19.316 150.015 19.964 149.919 20.54H135.339C135.459 21.98 135.963 23.108 136.851 23.924C137.739 24.74 138.831 25.148 140.127 25.148C141.999 25.148 143.331 24.344 144.123 22.736H149.559C148.983 24.656 147.879 26.24 146.247 27.488C144.615 28.712 142.611 29.324 140.235 29.324C138.315 29.324 136.587 28.904 135.051 28.064C133.539 27.2 132.351 25.988 131.487 24.428C130.647 22.868 130.227 21.068 130.227 19.028C130.227 16.964 130.647 15.152 131.487 13.592C132.327 12.032 133.503 10.832 135.015 9.992C136.527 9.152 138.267 8.732 140.235 8.732C142.131 8.732 143.823 9.14 145.311 9.956C146.823 10.772 147.987 11.936 148.803 13.448C149.643 14.936 150.063 16.652 150.063 18.596ZM144.843 17.156C144.819 15.86 144.351 14.828 143.439 14.06C142.527 13.268 141.411 12.872 140.091 12.872C138.843 12.872 137.787 13.256 136.923 14.024C136.083 14.768 135.567 15.812 135.375 17.156H144.843ZM158.782 12.152C159.43 11.096 160.27 10.268 161.302 9.668C162.358 9.068 163.558 8.768 164.902 8.768V14.06H163.57C161.986 14.06 160.786 14.432 159.97 15.176C159.178 15.92 158.782 17.216 158.782 19.064V29H153.742V9.056H158.782V12.152ZM177.153 29.324C175.233 29.324 173.505 28.904 171.969 28.064C170.433 27.2 169.221 25.988 168.333 24.428C167.469 22.868 167.037 21.068 167.037 19.028C167.037 16.988 167.481 15.188 168.369 13.628C169.281 12.068 170.517 10.868 172.077 10.028C173.637 9.164 175.377 8.732 177.297 8.732C179.217 8.732 180.957 9.164 182.517 10.028C184.077 10.868 185.301 12.068 186.189 13.628C187.101 15.188 187.557 16.988 187.557 19.028C187.557 21.068 187.089 22.868 186.152 24.428C185.241 25.988 183.993 27.2 182.409 28.064C180.849 28.904 179.097 29.324 177.153 29.324ZM177.153 24.932C178.065 24.932 178.917 24.716 179.709 24.284C180.525 23.828 181.173 23.156 181.653 22.268C182.133 21.38 182.373 20.3 182.373 19.028C182.373 17.132 181.869 15.68 180.861 14.672C179.877 13.64 178.665 13.124 177.225 13.124C175.785 13.124 174.573 13.64 173.589 14.672C172.629 15.68 172.149 17.132 172.149 19.028C172.149 20.924 172.617 22.388 173.553 23.42C174.513 24.428 175.713 24.932 177.153 24.932ZM198.886 29.324C197.254 29.324 195.79 29.036 194.494 28.46C193.198 27.86 192.166 27.056 191.398 26.048C190.654 25.04 190.246 23.924 190.174 22.7H195.25C195.346 23.468 195.718 24.104 196.366 24.608C197.038 25.112 197.866 25.364 198.85 25.364C199.81 25.364 200.554 25.172 201.082 24.788C201.634 24.404 201.91 23.912 201.91 23.312C201.91 22.664 201.574 22.184 200.902 21.872C200.254 21.536 199.21 21.176 197.77 20.792C196.282 20.432 195.058 20.06 194.098 19.676C193.162 19.292 192.346 18.704 191.65 17.912C190.978 17.12 190.642 16.052 190.642 14.708C190.642 13.604 190.954 12.596 191.578 11.684C192.226 10.772 193.138 10.052 194.314 9.524C195.514 8.996 196.918 8.732 198.526 8.732C200.902 8.732 202.798 9.332 204.214 10.532C205.63 11.708 206.41 13.304 206.554 15.32H201.73C201.658 14.528 201.322 13.904 200.722 13.448C200.146 12.968 199.366 12.728 198.382 12.728C197.47 12.728 196.762 12.896 196.258 13.232C195.778 13.568 195.538 14.036 195.538 14.636C195.538 15.308 195.874 15.824 196.546 16.184C197.218 16.52 198.262 16.868 199.678 17.228C201.118 17.588 202.306 17.96 203.242 18.344C204.178 18.728 204.982 19.328 205.654 20.144C206.35 20.936 206.71 21.992 206.734 23.312C206.734 24.464 206.41 25.496 205.762 26.408C205.138 27.32 204.226 28.04 203.026 28.568C201.85 29.072 200.47 29.324 198.886 29.324Z" fill="#A861D3"/>
</svg>
