<svg width="25" height="25" viewBox="0 0 25 25" fill="none" xmlns="http://www.w3.org/2000/svg">
<path d="M4.74352 22.0307C4.26437 22.0307 3.84887 21.8548 3.49703 21.5029C3.14521 21.1511 2.9693 20.7356 2.9693 20.2565V4.74354C2.9693 4.26269 3.14521 3.84574 3.49703 3.49268C3.84887 3.13961 4.26437 2.96307 4.74352 2.96307H20.2564C20.7373 2.96307 21.1542 3.13961 21.5073 3.49268C21.8604 3.84574 22.0369 4.26269 22.0369 4.74354V20.2565C22.0369 20.7356 21.8604 21.1511 21.5073 21.5029C21.1542 21.8548 20.7373 22.0307 20.2564 22.0307H4.74352ZM4.74352 17.4479V20.2565H20.2564V11.16L13.8145 17.5957L9.20513 12.9863L4.74352 17.4479ZM4.74352 15.1347L9.20513 10.6731L13.8145 15.2825L20.2564 8.84058V4.74354H4.74352V15.1347ZM4.74352 11.16V8.84058V15.2825V10.6731V17.4479V12.9863V17.5957V11.16ZM4.74352 15.1347V4.74354V15.2825V10.6731V15.1347ZM4.74352 17.4479V12.9863V17.5957V11.16V20.2565V17.4479Z" fill="#4B4B4B"/>
</svg>
