<svg width="25" height="25" viewBox="0 0 25 25" fill="none" xmlns="http://www.w3.org/2000/svg">
<path d="M3.70189 20.989C3.22274 20.989 2.80725 20.8131 2.45541 20.4613C2.10358 20.1094 1.92767 19.6939 1.92767 19.2148V5.78521C1.92767 5.30436 2.10358 4.8874 2.45541 4.53435C2.80725 4.18128 3.22274 4.00474 3.70189 4.00474H21.2981C21.779 4.00474 22.1959 4.18128 22.549 4.53435C22.9021 4.8874 23.0786 5.30436 23.0786 5.78521V19.2148C23.0786 19.6939 22.9021 20.1094 22.549 20.4613C22.1959 20.8131 21.779 20.989 21.2981 20.989H3.70189ZM12.5 13.168L3.70189 7.36073V19.2148H21.2981V7.36073L12.5 13.168ZM12.5 11.4623L21.194 5.78521H3.8321L12.5 11.4623ZM3.70189 7.36073V5.78521V19.2148V7.36073Z" fill="#4B4B4B"/>
</svg>
