<svg width="38" height="39" viewBox="0 0 38 39" fill="none" xmlns="http://www.w3.org/2000/svg">
<path d="M9.59186 27.762V25.775H11.8597V17.0834C11.8597 15.4097 12.3485 13.9052 13.3262 12.5697C14.3038 11.2342 15.6024 10.3942 17.222 10.0497V9.44991C17.222 8.92896 17.4034 8.48615 17.7663 8.1215C18.1292 7.75683 18.5699 7.57449 19.0884 7.57449C19.6068 7.57449 20.0475 7.75683 20.4104 8.1215C20.7733 8.48615 20.9547 8.92896 20.9547 9.44991V10.0497C22.5743 10.3895 23.8741 11.228 24.854 12.5651C25.834 13.9022 26.324 15.4083 26.324 17.0834V25.775H28.5919V27.762H9.59186ZM19.0919 31.3245C18.4349 31.3245 17.8724 31.0899 17.4042 30.6207C16.9361 30.1515 16.702 29.5874 16.702 28.9286H21.4816C21.4816 29.5888 21.2471 30.1532 20.778 30.6217C20.3089 31.0902 19.7469 31.3245 19.0919 31.3245ZM13.8445 25.775H24.3322V17.0834C24.3322 15.6298 23.8224 14.3915 22.8027 13.3684C21.7831 12.3453 20.545 11.8338 19.0884 11.8338C17.6317 11.8338 16.3936 12.3453 15.374 13.3684C14.3544 14.3915 13.8445 15.6298 13.8445 17.0834V25.775Z" fill="#A6A6A6"/>
<circle cx="19" cy="19.7223" r="18" stroke="#A6A6A6" stroke-width="2"/>
</svg>
