<svg width="20" height="20" viewBox="0 0 20 20" fill="none" xmlns="http://www.w3.org/2000/svg">
<path d="M16.5784 17.6187L11.0693 12.1146C10.6559 12.4655 10.1726 12.7392 9.61929 12.9357C9.06596 13.1322 8.47456 13.2305 7.8451 13.2305C6.31962 13.2305 5.0283 12.7014 3.97114 11.6431C2.91399 10.5848 2.38541 9.30796 2.38541 7.81249C2.38541 6.31702 2.91455 5.04014 3.97283 3.98187C5.03109 2.9236 6.31143 2.39447 7.81385 2.39447C9.31627 2.39447 10.5931 2.9236 11.6445 3.98187C12.6958 5.04014 13.2215 6.31806 13.2215 7.81562C13.2215 8.41739 13.1267 8.99357 12.9373 9.54416C12.7478 10.0947 12.4636 10.6114 12.0847 11.0942L17.6146 16.5824L16.5784 17.6187ZM7.82604 11.8111C8.9334 11.8111 9.87291 11.4205 10.6446 10.6394C11.4162 9.8582 11.8021 8.91591 11.8021 7.81249C11.8021 6.70907 11.416 5.76678 10.6439 4.98562C9.8717 4.20444 8.93243 3.81385 7.82604 3.81385C6.70807 3.81385 5.75837 4.20444 4.97693 4.98562C4.1955 5.76678 3.80479 6.70907 3.80479 7.81249C3.80479 8.91591 4.19526 9.8582 4.97621 10.6394C5.75714 11.4205 6.70708 11.8111 7.82604 11.8111Z" fill="#8F8F8F"/>
</svg>
