<svg width="25" height="25" viewBox="0 0 25 25" fill="none" xmlns="http://www.w3.org/2000/svg">
<path d="M9.96719 23.0724L9.44013 19.7413C9.13519 19.6322 8.80976 19.4787 8.46386 19.2808C8.11796 19.0828 7.8165 18.8793 7.55948 18.6702L4.44297 20.1013L1.87787 15.5752L4.72771 13.493C4.69714 13.3492 4.67751 13.1837 4.66883 12.9965C4.66015 12.8093 4.65581 12.6438 4.65581 12.5C4.65581 12.3562 4.66015 12.1907 4.66883 12.0035C4.67751 11.8163 4.69714 11.6508 4.72771 11.507L1.87787 9.41861L4.44297 4.90491L7.57193 6.32983C7.8248 6.1249 8.12314 5.92449 8.46696 5.72861C8.81079 5.53274 9.13519 5.38687 9.44013 5.291L9.96719 1.92142H15.0329L15.5599 5.26496C15.8649 5.37819 16.1936 5.5284 16.5461 5.71558C16.8986 5.90279 17.1968 6.10754 17.4406 6.32983L20.5633 4.90491L23.1222 9.41861L20.2661 11.455C20.2967 11.6161 20.3173 11.7903 20.3281 11.9775C20.3389 12.1647 20.3442 12.3388 20.3442 12.5C20.3442 12.6612 20.3389 12.831 20.3281 13.0095C20.3173 13.188 20.2967 13.3579 20.2661 13.519L23.1222 15.5752L20.5571 20.1013L17.4344 18.6702C17.1773 18.8793 16.8813 19.0861 16.5461 19.2907C16.211 19.4952 15.8822 19.6454 15.5599 19.7413L15.0329 23.0724H9.96719ZM12.4876 15.8854C13.4251 15.8854 14.2237 15.5556 14.8834 14.8958C15.5431 14.2361 15.873 13.4375 15.873 12.5C15.873 11.5625 15.5431 10.7639 14.8834 10.1042C14.2237 9.44446 13.4251 9.11459 12.4876 9.11459C11.5501 9.11459 10.7515 9.44446 10.0917 10.1042C9.43203 10.7639 9.10217 11.5625 9.10217 12.5C9.10217 13.4375 9.43203 14.2361 10.0917 14.8958C10.7515 15.5556 11.5501 15.8854 12.4876 15.8854ZM12.4876 14.3229C11.98 14.3229 11.5492 14.145 11.1954 13.7891C10.8416 13.4332 10.6647 13.0035 10.6647 12.5C10.6647 11.9965 10.8416 11.5669 11.1954 11.2109C11.5492 10.855 11.98 10.6771 12.4876 10.6771C12.9911 10.6771 13.4207 10.855 13.7766 11.2109C14.1325 11.5669 14.3105 11.9965 14.3105 12.5C14.3105 13.0035 14.1325 13.4332 13.7766 13.7891C13.4207 14.145 12.9911 14.3229 12.4876 14.3229ZM11.404 21.2981H13.5898L13.9606 18.3877C14.5377 18.2488 15.0854 18.0318 15.6038 17.7367C16.1222 17.4415 16.5897 17.0794 17.0064 16.6503L19.7668 17.8482L20.7524 16.0541L18.317 14.2697C18.3864 13.9704 18.4439 13.6755 18.4893 13.3849C18.5348 13.0942 18.5576 12.7993 18.5576 12.5C18.5576 12.2007 18.5392 11.9058 18.5023 11.6152C18.4656 11.3246 18.4038 11.0296 18.317 10.7303L20.7586 8.9459L19.7668 7.15183L17.0126 8.34975C16.6133 7.89006 16.1578 7.5052 15.646 7.19517C15.1342 6.88512 14.5724 6.68876 13.9606 6.60611L13.596 3.70189H11.404L11.0457 6.60611C10.4471 6.72348 9.88757 6.93286 9.36711 7.23423C8.84665 7.53558 8.38468 7.90742 7.98123 8.34975L5.23329 7.15183L4.24144 8.9459L6.67066 10.7241C6.60121 11.0234 6.54375 11.3194 6.49829 11.612C6.4528 11.9047 6.43006 12.2007 6.43006 12.5C6.43006 12.7993 6.4528 13.0963 6.49829 13.3911C6.54375 13.6859 6.60121 13.9808 6.67066 14.2759L4.24144 16.0541L5.23329 17.8482L7.98123 16.6503C8.40204 17.0752 8.87269 17.4374 9.39316 17.7367C9.91361 18.0359 10.4644 18.255 11.0457 18.3939L11.404 21.2981Z" fill="#4B4B4B"/>
</svg>
