<svg width="156" height="22" viewBox="0 0 156 22" fill="none" xmlns="http://www.w3.org/2000/svg">
<path d="M10.1892 21.288C8.43716 21.288 6.87716 20.988 5.50916 20.388C4.14116 19.788 3.06116 18.972 2.26916 17.94C1.47716 16.884 1.03316 15.708 0.937156 14.412H7.02116C7.09316 15.108 7.41716 15.672 7.99316 16.104C8.56916 16.536 9.27716 16.752 10.1172 16.752C10.8852 16.752 11.4732 16.608 11.8812 16.32C12.3132 16.008 12.5292 15.612 12.5292 15.132C12.5292 14.556 12.2292 14.136 11.6292 13.872C11.0292 13.584 10.0572 13.272 8.71316 12.936C7.27316 12.6 6.07316 12.252 5.11316 11.892C4.15316 11.508 3.32516 10.92 2.62916 10.128C1.93316 9.312 1.58516 8.22 1.58516 6.852C1.58516 5.7 1.89716 4.656 2.52116 3.72C3.16916 2.76 4.10516 2.004 5.32916 1.452C6.57716 0.899998 8.05316 0.623998 9.75716 0.623998C12.2772 0.623998 14.2572 1.248 15.6972 2.496C17.1612 3.744 18.0012 5.4 18.2172 7.464H12.5292C12.4332 6.768 12.1212 6.216 11.5932 5.808C11.0892 5.4 10.4172 5.196 9.57716 5.196C8.85716 5.196 8.30516 5.34 7.92116 5.628C7.53716 5.892 7.34516 6.264 7.34516 6.744C7.34516 7.32 7.64516 7.752 8.24516 8.04C8.86916 8.328 9.82916 8.616 11.1252 8.904C12.6132 9.288 13.8252 9.672 14.7612 10.056C15.6972 10.416 16.5132 11.016 17.2092 11.856C17.9292 12.672 18.3012 13.776 18.3252 15.168C18.3252 16.344 17.9892 17.4 17.3172 18.336C16.6692 19.248 15.7212 19.968 14.4732 20.496C13.2492 21.024 11.8212 21.288 10.1892 21.288ZM31.2354 21.288C29.2674 21.288 27.4914 20.868 25.9074 20.028C24.3474 19.188 23.1114 17.988 22.1994 16.428C21.3114 14.868 20.8674 13.044 20.8674 10.956C20.8674 8.892 21.3234 7.08 22.2354 5.52C23.1474 3.936 24.3954 2.724 25.9794 1.884C27.5634 1.044 29.3394 0.623998 31.3074 0.623998C33.2754 0.623998 35.0514 1.044 36.6354 1.884C38.2194 2.724 39.4674 3.936 40.3794 5.52C41.2914 7.08 41.7474 8.892 41.7474 10.956C41.7474 13.02 41.2794 14.844 40.3434 16.428C39.4314 17.988 38.1714 19.188 36.5634 20.028C34.9794 20.868 33.2034 21.288 31.2354 21.288ZM31.2354 15.96C32.4114 15.96 33.4074 15.528 34.2234 14.664C35.0634 13.8 35.4834 12.564 35.4834 10.956C35.4834 9.348 35.0754 8.112 34.2594 7.248C33.4674 6.384 32.4834 5.952 31.3074 5.952C30.1074 5.952 29.1114 6.384 28.3194 7.248C27.5274 8.088 27.1314 9.324 27.1314 10.956C27.1314 12.564 27.5154 13.8 28.2834 14.664C29.0754 15.528 30.0594 15.96 31.2354 15.96ZM57.2533 0.696C59.6053 0.696 61.4773 1.464 62.8693 3C64.2853 4.512 64.9933 6.6 64.9933 9.264V21H58.8733V10.092C58.8733 8.748 58.5253 7.704 57.8293 6.96C57.1333 6.216 56.1973 5.844 55.0213 5.844C53.8453 5.844 52.9093 6.216 52.2133 6.96C51.5173 7.704 51.1693 8.748 51.1693 10.092V21H45.0133V0.911999H51.1693V3.576C51.7933 2.688 52.6333 1.992 53.6893 1.488C54.7453 0.959999 55.9333 0.696 57.2533 0.696ZM151.823 21.288C150.575 21.288 149.567 20.952 148.799 20.28C148.055 19.584 147.683 18.708 147.683 17.652C147.683 16.596 148.055 15.72 148.799 15.024C149.567 14.328 150.575 13.98 151.823 13.98C153.047 13.98 154.031 14.328 154.775 15.024C155.543 15.72 155.927 16.596 155.927 17.652C155.927 18.684 155.543 19.548 154.775 20.244C154.031 20.94 153.047 21.288 151.823 21.288Z" fill="#474747"/>
<path d="M88.0631 10.596C88.0631 11.316 88.0151 11.964 87.9191 12.54H73.3391C73.4591 13.98 73.9631 15.108 74.8511 15.924C75.7391 16.74 76.8311 17.148 78.1271 17.148C79.9991 17.148 81.3311 16.344 82.1231 14.736H87.5591C86.9831 16.656 85.8791 18.24 84.2471 19.488C82.6151 20.712 80.6111 21.324 78.2351 21.324C76.3151 21.324 74.5871 20.904 73.0511 20.064C71.5391 19.2 70.3511 17.988 69.4871 16.428C68.6471 14.868 68.2271 13.068 68.2271 11.028C68.2271 8.964 68.6471 7.152 69.4871 5.592C70.3271 4.032 71.5031 2.832 73.0151 1.992C74.5271 1.152 76.2671 0.731999 78.2351 0.731999C80.1311 0.731999 81.8231 1.14 83.3111 1.956C84.8231 2.772 85.9871 3.936 86.8031 5.448C87.6431 6.936 88.0631 8.652 88.0631 10.596ZM82.8431 9.156C82.8191 7.86 82.3511 6.828 81.4391 6.06C80.5271 5.268 79.4111 4.872 78.0911 4.872C76.8431 4.872 75.7871 5.256 74.9231 6.024C74.0831 6.768 73.5671 7.812 73.3751 9.156H82.8431ZM96.7818 4.152C97.4298 3.096 98.2698 2.268 99.3018 1.668C100.358 1.068 101.558 0.767999 102.902 0.767999V6.06H101.57C99.9858 6.06 98.7858 6.432 97.9698 7.176C97.1778 7.92 96.7818 9.216 96.7818 11.064V21H91.7418V1.056H96.7818V4.152ZM115.153 21.324C113.233 21.324 111.505 20.904 109.969 20.064C108.433 19.2 107.221 17.988 106.333 16.428C105.469 14.868 105.037 13.068 105.037 11.028C105.037 8.988 105.481 7.188 106.369 5.628C107.281 4.068 108.517 2.868 110.077 2.028C111.637 1.164 113.377 0.731999 115.297 0.731999C117.217 0.731999 118.957 1.164 120.517 2.028C122.077 2.868 123.301 4.068 124.189 5.628C125.101 7.188 125.557 8.988 125.557 11.028C125.557 13.068 125.089 14.868 124.152 16.428C123.241 17.988 121.993 19.2 120.409 20.064C118.849 20.904 117.097 21.324 115.153 21.324ZM115.153 16.932C116.065 16.932 116.917 16.716 117.709 16.284C118.525 15.828 119.173 15.156 119.653 14.268C120.133 13.38 120.373 12.3 120.373 11.028C120.373 9.132 119.869 7.68 118.861 6.672C117.877 5.64 116.665 5.124 115.225 5.124C113.785 5.124 112.573 5.64 111.589 6.672C110.629 7.68 110.149 9.132 110.149 11.028C110.149 12.924 110.617 14.388 111.553 15.42C112.513 16.428 113.713 16.932 115.153 16.932ZM136.886 21.324C135.254 21.324 133.79 21.036 132.494 20.46C131.198 19.86 130.166 19.056 129.398 18.048C128.654 17.04 128.246 15.924 128.174 14.7H133.25C133.346 15.468 133.718 16.104 134.366 16.608C135.038 17.112 135.866 17.364 136.85 17.364C137.81 17.364 138.554 17.172 139.082 16.788C139.634 16.404 139.91 15.912 139.91 15.312C139.91 14.664 139.574 14.184 138.902 13.872C138.254 13.536 137.21 13.176 135.77 12.792C134.282 12.432 133.058 12.06 132.098 11.676C131.162 11.292 130.346 10.704 129.65 9.912C128.978 9.12 128.642 8.052 128.642 6.708C128.642 5.604 128.954 4.596 129.578 3.684C130.226 2.772 131.138 2.052 132.314 1.524C133.514 0.995999 134.918 0.731999 136.526 0.731999C138.902 0.731999 140.798 1.332 142.214 2.532C143.63 3.708 144.41 5.304 144.554 7.32H139.73C139.658 6.528 139.322 5.904 138.722 5.448C138.146 4.968 137.366 4.728 136.382 4.728C135.47 4.728 134.762 4.896 134.258 5.232C133.778 5.568 133.538 6.036 133.538 6.636C133.538 7.308 133.874 7.824 134.546 8.184C135.218 8.52 136.262 8.868 137.678 9.228C139.118 9.588 140.306 9.96 141.242 10.344C142.178 10.728 142.982 11.328 143.654 12.144C144.35 12.936 144.71 13.992 144.734 15.312C144.734 16.464 144.41 17.496 143.762 18.408C143.138 19.32 142.226 20.04 141.026 20.568C139.85 21.072 138.47 21.324 136.886 21.324Z" fill="#A861D3"/>
</svg>
